#!OML:ASF F:\Work\Patient Classification 1\justin\Session 1\justin.ASF
:FULLY-SPECIFIED
:DEGREES
584
root -1.34907 17.1258 3.59043 14.1917 61.3727 10.7985
lowerback 21.7738 -0.63765 3.28681
upperback 1.63753 0.19543 1.17956
thorax -10.4059 0.0158207 -0.643531
lowerneck -1.26215 -16.511 -23.0548
upperneck -1.17255 -22.5343 23.0668
head 5.2576 -11.0624 8.75872
rclavicle 1.23246e-014 6.36111e-015
rhumerus 1.8875 -24.5611 -32.7037
rradius 112.537
rwrist -13.9225
rhand -11.0536 24.0472
rfingers 7.12502
rthumb 14.9689 -5.3918
lclavicle 1.23246e-014 6.36111e-015
lhumerus 13.0104 -28.2689 88.3076
lradius 132.271
lwrist 12.1143
lhand -16.4418 4.66715
lfingers 7.12502
lthumb 9.7739 34.4203
rfemur -29.3106 -5.95161 0.0275824
rtibia 44.6716
rfoot -11.6476 -2.28243
rtoes -19.067
lfemur -9.89914 1.90671 -0.774254
ltibia 32.1062
lfoot -6.87381 -10.3332
ltoes -27.8954
585
root -1.32021 17.1537 3.56115 13.6911 60.9453 10.204
lowerback 21.4939 -0.737093 3.03106
upperback 1.55933 -0.00141876 1.2677
thorax -10.3465 -0.0642708 -0.341239
lowerneck -1.52452 -16.3638 -22.7616
upperneck -0.787938 -22.3088 22.7105
head 5.27953 -10.9349 8.62669
rclavicle -3.81667e-014 9.54166e-015
rhumerus 1.3211 -23.6139 -34.4669
rradius 115.255
rwrist -14.3396
rhand -11.3995 23.9134
rfingers 7.12502
rthumb 14.6356 -5.55017
lclavicle -3.81667e-014 9.54166e-015
lhumerus 12.8669 -28.2129 88.0677
lradius 131.934
lwrist 11.4849
lhand -16.7226 4.21614
lfingers 7.12502
lthumb 9.50298 33.9819
rfemur -29.0271 -5.68216 0.123127
rtibia 43.7876
rfoot -11.2937 -1.94926
rtoes -17.9201
lfemur -9.58084 1.72017 -0.625677
ltibia 31.8816
lfoot -6.66759 -10.4408
ltoes -26.5425
586
root -1.28937 17.1847 3.52864 13.324 60.6191 9.76788
lowerback 21.1725 -0.896237 2.69148
upperback 1.6069 -0.277728 1.51704
thorax -10.1212 -0.16972 0.205991
lowerneck -2.19098 -16.2535 -22.874
upperneck -0.433099 -22.0527 22.4899
head 5.41886 -10.7659 8.56267
rclavicle 5.92378e-014 -1.59028e-014
rhumerus 1.02703 -22.7159 -36.2132
rradius 118.127
rwrist -14.8766
rhand -11.2889 24.06
rfingers 7.12502
rthumb 14.7422 -5.39579
lclavicle 5.92378e-014 -1.59028e-014
lhumerus 13.0747 -27.9221 87.9386
lradius 131.635
lwrist 11.3684
lhand -16.6325 4.3301
lfingers 7.12502
lthumb 9.58992 34.0918
rfemur -28.6684 -5.25591 0.125685
rtibia 42.929
rfoot -11.1062 -1.94004
rtoes -20.0977
lfemur -9.3492 1.57969 -0.541654
ltibia 31.6969
lfoot -6.54773 -10.8018
ltoes -25.2392
587
root -1.25506 17.2118 3.48806 12.8274 60.3586 9.21824
lowerback 20.9091 -1.02171 2.63031
upperback 1.63021 -0.4435 1.73937
thorax -9.95116 -0.238089 0.529952
lowerneck -2.64218 -16.1353 -22.9671
upperneck -0.209473 -21.813 22.3396
head 5.49581 -10.6203 8.53649
rclavicle -1.27222e-014 2.22639e-014
rhumerus 0.603547 -21.8956 -37.7332
rradius 120.885
rwrist -15.473
rhand -11.1267 24.8004
rfingers 7.12502
rthumb 14.8985 -4.6439
lclavicle -1.27222e-014 2.22639e-014
lhumerus 13.3675 -27.9146 88.0118
lradius 131.336
lwrist 11.5838
lhand -16.2655 4.97464
lfingers 7.12502
lthumb 9.94404 34.7198
rfemur -28.2781 -4.91102 0.151526
rtibia 42.1528
rfoot -11.0809 -1.81891
rtoes -21.6383
lfemur -9.17073 1.36343 -0.475355
ltibia 31.5565
lfoot -6.9338 -11.1905
ltoes -25.5437
588
root -1.22007 17.2333 3.44392 12.2188 60.1023 8.57208
lowerback 21.0547 -1.11498 3.1647
upperback 1.28162 -0.456342 1.53379
thorax -10.428 -0.283537 0.0113637
lowerneck -2.36128 -16.033 -22.9003
upperneck 0.19338 -21.7984 22.44
head 5.5758 -10.6243 8.58018
rclavicle 4.96962e-014 9.54166e-015
rhumerus -0.737464 -21.143 -39.194
rradius 123.284
rwrist -15.7239
rhand -11.1122 25.6684
rfingers 7.12502
rthumb 14.9124 -3.77481
lclavicle 4.96962e-014 9.54166e-015
lhumerus 13.0347 -28.6205 88.0802
lradius 131.159
lwrist 11.9155
lhand -15.414 6.2346
lfingers 7.12502
lthumb 10.7655 35.9387
rfemur -27.9018 -4.79666 0.297123
rtibia 41.4289
rfoot -10.7983 -1.77562
rtoes -21.1259
lfemur -8.93548 1.00466 -0.341731
ltibia 31.4446
lfoot -7.26575 -11.594
ltoes -24.9348
589
root -1.18804 17.2398 3.40071 11.7078 59.7137 8.05118
lowerback 21.1334 -1.15267 3.36726
upperback 0.977004 -0.475739 1.34415
thorax -10.8181 -0.318186 -0.301273
lowerneck -2.10196 -15.9476 -22.5966
upperneck 0.544678 -21.7868 22.3742
head 5.59375 -10.6301 8.53804
rclavicle 2.26615e-014 1.59028e-015
rhumerus -1.81811 -20.5051 -40.7454
rradius 125.303
rwrist -15.6608
rhand -11.0485 26.3862
rfingers 7.12502
rthumb 14.9738 -3.0525
lclavicle 2.26615e-014 1.59028e-015
lhumerus 12.6803 -29.1682 88.0041
lradius 131.015
lwrist 11.9029
lhand -14.9032 6.84152
lfingers 7.12502
lthumb 11.2581 36.5194
rfemur -27.6276 -4.41139 0.337133
rtibia 40.7688
rfoot -10.3744 -1.87873
rtoes -16.8875
lfemur -8.62461 0.820894 -0.189673
ltibia 31.4086
lfoot -7.29116 -12.1927
ltoes -22.5164
590
root -1.15951 17.2445 3.36109 11.2278 59.1604 7.6227
lowerback 20.812 -1.15496 2.69026
upperback 1.05672 -0.625215 1.61493
thorax -10.5431 -0.344044 0.421918
lowerneck -2.40727 -15.7649 -22.4745
upperneck 0.667852 -21.4738 22.1572
head 5.56845 -10.4609 8.49013
rclavicle -9.54166e-015 1.27222e-014
rhumerus -1.51381 -19.8031 -42.2653
rradius 126.996
rwrist -15.8346
rhand -10.876 26.9064
rfingers 7.12502
rthumb 15.14 -2.51982
lclavicle -9.54166e-015 1.27222e-014
lhumerus 12.8717 -28.8434 87.8762
lradius 130.726
lwrist 11.6616
lhand -15.0189 6.37089
lfingers 7.12502
lthumb 11.1465 36.0548
rfemur -27.4091 -3.85813 0.281014
rtibia 40.1542
rfoot -10.2323 -1.78811
rtoes -14.8119
lfemur -8.21106 0.76714 -0.116893
ltibia 31.3822
lfoot -7.58423 -12.711
ltoes -21.5122
591
root -1.12748 17.2431 3.32347 10.5971 58.6902 7.0959
lowerback 20.6742 -1.19813 2.35669
upperback 1.03853 -0.751105 1.75461
thorax -10.482 -0.383496 0.800941
lowerneck -2.52739 -15.5893 -22.7588
upperneck 0.909029 -21.261 22.4532
head 5.68782 -10.3436 8.65544
rclavicle -7.03698e-014 3.18055e-015
rhumerus -1.76114 -18.9488 -43.7847
rradius 128.949
rwrist -15.9588
rhand -10.7844 27.2768
rfingers 7.12502
rthumb 15.2282 -2.14268
lclavicle -7.03698e-014 3.18055e-015
lhumerus 12.9867 -28.8745 87.7935
lradius 130.247
lwrist 11.2515
lhand -15.1705 5.95776
lfingers 7.12502
lthumb 11.0003 35.6495
rfemur -27.1101 -3.64558 0.33364
rtibia 39.5886
rfoot -10.2445 -1.47547
rtoes -17.2799
lfemur -7.78512 0.682803 0.00602385
ltibia 31.3819
lfoot -8.03977 -13.0932
ltoes -21.5496
592
root -1.08937 17.2374 3.28534 9.83499 58.2156 6.40682
lowerback 20.5094 -1.13963 2.2907
upperback 0.958327 -0.691041 1.81053
thorax -10.4785 -0.352323 0.881164
lowerneck -2.45378 -15.5355 -22.9646
upperneck 1.231 -21.27 22.7316
head 5.83729 -10.3444 8.77546
rclavicle 4.17448e-014 6.36111e-015
rhumerus -2.91855 -17.9421 -45.4264
rradius 131.192
rwrist -15.447
rhand -11.1691 27.4574
rfingers 7.12502
rthumb 14.8576 -1.98991
lclavicle 4.17448e-014 6.36111e-015
lhumerus 13.1261 -29.4666 87.835
lradius 129.615
lwrist 10.4125
lhand -15.5054 5.53869
lfingers 7.12502
lthumb 10.6773 35.2474
rfemur -26.8172 -3.53832 0.517574
rtibia 39.0543
rfoot -10.1572 -1.13384
rtoes -17.9814
lfemur -7.32745 0.606149 0.193448
ltibia 31.3723
lfoot -8.46029 -13.2239
ltoes -21.3322
593
root -1.0473 17.2273 3.24096 9.02677 57.6308 5.68337
lowerback 20.1632 -1.02997 2.05979
upperback 1.02525 -0.58735 2.05683
thorax -10.2059 -0.284961 1.24541
lowerneck -2.85963 -15.581 -23.0538
upperneck 1.70084 -21.2901 22.4657
head 6.02349 -10.3269 8.65975
rclavicle 8.11041e-014 7.95139e-015
rhumerus -3.15863 -17.4066 -46.2555
rradius 132.611
rwrist -15.8371
rhand -11.7414 27.4569
rfingers 7.12502
rthumb 14.3062 -2.03028
lclavicle 8.11041e-014 7.95139e-015
lhumerus 13.4111 -29.8199 87.9303
lradius 129.021
lwrist 9.60332
lhand -16.228 4.84473
lfingers 7.12502
lthumb 9.98016 34.5881
rfemur -26.6054 -3.26439 0.686904
rtibia 38.6223
rfoot -10.0837 -0.906628
rtoes -17.7512
lfemur -6.81192 0.481032 0.321003
ltibia 31.3728
lfoot -9.1424 -13.0655
ltoes -21.7493
594
root -1.0035 17.2128 3.19355 8.32424 57.1201 5.18476
lowerback 19.8638 -1.0904 1.74034
upperback 1.13304 -0.731095 2.24625
thorax -9.91202 -0.332751 1.66692
lowerneck -3.26511 -15.4628 -22.9198
upperneck 2.0467 -21.0658 22.144
head 6.0861 -10.1942 8.54813
rclavicle 6.59965e-014 -1.59028e-015
rhumerus -2.9959 -16.635 -47.5007
rradius 134.016
rwrist -16.1898
rhand -11.8691 27.8552
rfingers 7.12502
rthumb 14.1832 -1.64061
lclavicle 6.59965e-014 -1.59028e-015
lhumerus 13.7175 -29.7632 87.9771
lradius 128.58
lwrist 8.96984
lhand -16.7345 4.52874
lfingers 7.12502
lthumb 9.49148 34.295
rfemur -26.32 -3.1497 0.720973
rtibia 38.2921
rfoot -10.1287 -0.617452
rtoes -18.3637
lfemur -6.23521 0.343479 0.359754
ltibia 31.3976
lfoot -9.80054 -13.0294
ltoes -21.7106
595
root -0.966939 17.1927 3.14976 7.7322 56.6411 4.79715
lowerback 19.614 -1.15366 1.36753
upperback 1.13141 -0.906595 2.26192
thorax -9.76596 -0.40067 1.9392
lowerneck -3.00933 -15.252 -22.2572
upperneck 1.99336 -20.8127 21.8291
head 5.85677 -10.0901 8.42647
rclavicle 5.88403e-014 6.36111e-015
rhumerus -3.18288 -15.8859 -49.0588
rradius 135.335
rwrist -16.1102
rhand -11.8322 28.4247
rfingers 7.12502
rthumb 14.2187 -1.06858
lclavicle 5.88403e-014 6.36111e-015
lhumerus 13.8991 -29.8404 87.8781
lradius 128.304
lwrist 8.45134
lhand -16.5185 5.18206
lfingers 7.12502
lthumb 9.69994 34.9387
rfemur -26.0816 -3.00045 0.738303
rtibia 38.0502
rfoot -10.2665 -0.499249
rtoes -21.3405
lfemur -5.69582 0.0948563 0.366167
ltibia 31.4841
lfoot -10.3381 -12.7699
ltoes -21.192
